<svg width="419" height="100" viewBox="0 0 419 100" fill="none" xmlns="http://www.w3.org/2000/svg">
<path d="M85.1936 34.1778V54.3629H69.067V34.1778H56.9988V85.1936H69.067V63.8975H85.1936V85.1936H97.2619V34.1778H85.1936ZM146.348 75.659V34.1778H111.157V38.5384C111.157 51.0157 110.344 67.1424 106.085 75.659H102.334V96.8574H113.491V85.1936H140.57V96.8574H151.722V75.659H146.348ZM134.28 75.659H117.242C120.589 67.9513 121.501 54.0561 121.501 45.2327V43.7125H134.28V75.659ZM228.599 58.1144L245.642 34.1778H233.471L216.429 58.1144V34.1778H204.361V85.1936H216.429V60.5504L234.28 85.1936H247.971L228.599 58.1144ZM272.01 42.6991C276.672 42.6991 281.237 44.3215 283.673 45.8416V35.6004C281.135 34.1779 276.672 33.1644 270.689 33.1644C255.274 33.1644 247.264 44.2192 247.264 59.7369C247.264 76.7747 255.07 86.207 271.196 86.207C276.775 86.207 280.731 85.1936 283.673 83.0645V73.2276C280.629 75.3568 276.979 76.6724 271.907 76.6724C263.289 76.6724 259.737 69.9828 259.737 59.4347C259.737 48.8866 264.097 42.6991 272.01 42.6991ZM29.0038 14.7087C11.0548 14.7087 1.62243 23.9366 1.62243 37.525C1.62243 48.3799 6.79652 54.7673 16.0244 61.3593L0 85.1936H13.2862L31.1376 58.5189L24.95 54.3629C17.4422 49.291 13.7929 45.3349 13.7929 36.8184C13.7929 29.3106 19.0647 24.2387 29.106 24.2387H34.5823V85.1936H46.8551V14.7087H29.0038Z" fill="white"/>
<path d="M196.249 57.6079C196.249 39.8588 188.439 33.1646 176.371 33.1646C161.662 33.1646 154.666 44.4239 154.666 59.8393C154.666 77.5883 163.387 86.2072 178.803 86.2072C186.51 86.2072 192.191 84.1803 195.743 81.7443V71.9075C191.991 74.4411 185.701 76.6725 179.821 76.6725C171.025 76.6725 167.613 72.5305 167.19 63.9953H196.249V57.6079ZM167.167 55.0743C167.446 46.9947 170.388 42.6992 176.167 42.6992C181.945 42.6992 183.977 47.6688 183.977 54.0562V55.0743H167.167Z" fill="white"/>
<path d="M406.597 32.6577C393.92 32.6577 379.518 44.117 371.81 59.8392C363.898 75.4591 366.436 86.816 379.62 86.816C392.804 86.816 406.597 75.5613 414.305 59.8392C422.217 43.9171 419.377 32.6577 406.597 32.6577ZM402.339 59.7369C397.369 67.9513 391.991 74.2411 388.644 74.2411C385.501 74.2411 386.11 68.1558 391.284 59.7369C396.254 51.4202 401.628 45.135 404.975 45.135C408.015 45.135 407.411 51.2203 402.339 59.7369Z" fill="white"/>
<path d="M360.248 44.6283C366.942 32.6577 368.36 20.5895 363.186 20.5895C356.497 20.5895 345.033 33.0622 335.298 50.0023C325.661 66.8356 323.23 79.3129 329.417 79.3129C334.554 79.3129 342.941 72.0004 351.095 60.1413H336.107L341.992 50.6113H371.912C356.19 79.4152 333.978 100 311.059 100C290.874 100 289.052 77.6905 304.769 48.8866C319.78 21.403 343.615 0 364.813 0C377.895 0 389.456 12.4773 374.241 44.6283H360.248Z" fill="white"/>
</svg>
