<svg width="433" height="100" viewBox="0 0 433 100" fill="none" xmlns="http://www.w3.org/2000/svg">
<path d="M419.627 32.6577C406.931 32.6577 392.511 44.1216 384.789 59.8392C376.868 75.4591 379.411 86.8161 392.613 86.8161C405.816 86.8161 419.627 75.5613 427.349 59.8392C435.27 43.9171 432.425 32.6577 419.627 32.6577ZM415.364 59.7369C410.385 67.9513 405.002 74.2411 401.65 74.2411C398.503 74.2411 399.112 68.1558 404.291 59.7369C409.27 51.4202 414.653 45.135 418.005 45.135C421.05 45.135 420.441 51.2203 415.364 59.7369Z" fill="black"/>
<path d="M373.214 44.6283C379.917 32.6577 381.34 20.5895 376.156 20.5895C369.453 20.5895 357.98 33.0622 348.226 50.0023C338.58 66.8356 336.14 79.3129 342.336 79.3129C347.483 79.3129 355.878 72.005 364.042 60.146H349.04L354.93 50.6113H384.891C369.151 79.4152 346.906 100 323.955 100C303.742 100 301.915 77.6905 317.656 48.8866C332.69 21.403 356.557 0 377.783 0C390.884 0 402.464 12.4773 387.23 44.6283H373.214Z" fill="black"/>
<path d="M93.9798 50.3137V72.6093C93.9798 76.7327 94.1797 80.8841 94.5888 85.0727H82.8134C82.3393 83.8547 82.0371 82.5065 81.9023 81.0189H81.3956C80.2427 82.2369 78.755 83.3479 76.9281 84.3614C75.1708 85.3097 72.4978 85.7793 68.9089 85.7793C64.2415 85.7793 60.4528 84.3939 57.5426 81.6232C54.7022 78.7875 53.2797 74.7988 53.2797 69.6666C53.2797 64.5343 55.4135 60.4434 59.6764 57.6076C64.0045 54.7021 70.7731 53.2517 79.973 53.2517H81.9023V50.416C81.9023 47.6453 81.2236 45.7207 79.8708 44.6375C78.518 43.4893 76.3888 42.9128 73.4787 42.9128C71.4472 42.9128 69.3506 43.1825 67.1842 43.7217C65.0179 44.1959 63.0236 44.8374 61.1966 45.6463C59.4394 46.3901 58.0168 47.1665 56.9337 47.9753V37.9433C58.7606 36.8648 61.1966 35.8141 64.2415 34.8007C67.3562 33.7873 70.9079 33.2805 74.8966 33.2805C81.3258 33.2805 86.0955 34.5636 89.2102 37.1297C92.3899 39.6959 93.9798 44.089 93.9798 50.3044V50.3137ZM81.9023 72.9114V61.8659H80.1776C75.0314 61.8659 71.3123 62.4749 69.0112 63.6883C66.7798 64.8365 65.6641 66.8634 65.6641 69.7688C65.6641 71.9305 66.3056 73.6878 67.5933 75.0406C68.8764 76.3236 70.7731 76.9652 73.2741 76.9652C75.4405 76.9652 77.2303 76.5607 78.6528 75.7472C80.0753 74.9383 81.1585 73.9899 81.9023 72.9114ZM115.899 48.4867V85.0727H103.821V34.0987H115.597L115.899 38.357H116.508C117.726 37.139 119.451 35.9908 121.687 34.9123C123.918 33.8338 126.828 33.2898 130.412 33.2898C135.349 33.2898 138.906 34.4706 141.067 36.8369C143.234 39.1334 144.317 42.8152 144.317 47.8824V85.0773H132.239V49.1004C132.239 45.3163 130.175 43.4242 126.047 43.4242C123.885 43.4242 121.919 43.9309 120.162 44.9444C118.47 45.9578 117.052 47.1386 115.899 48.4914V48.4867ZM171.717 86.0861C166.036 86.0861 161.401 83.8221 157.812 79.2942C154.228 74.7663 152.434 68.3138 152.434 59.9367C152.434 51.5596 154.261 44.8374 157.915 40.1747C161.638 35.4469 166.408 33.0806 172.224 33.0806C177.639 33.0806 181.902 35.4097 185.012 40.0724V14.6343H197.09V85.068H185.928L185.319 78.4807C182.07 83.5479 177.537 86.0814 171.717 86.0814V86.0861ZM175.268 42.6107C171.819 42.6107 169.216 43.996 167.454 46.7667C165.766 49.5373 164.92 53.9258 164.92 59.9413C164.92 65.9569 165.729 69.9083 167.356 72.6093C168.979 75.2451 171.447 76.5607 174.762 76.5607C178.076 76.5607 180.684 75.2079 182.376 72.507C184.134 69.806 185.012 65.478 185.012 59.5369C185.012 53.5957 184.203 49.37 182.576 46.6644C180.954 43.9635 178.518 42.6107 175.268 42.6107ZM245.907 81.6279C244.149 82.8459 241.848 83.8919 239.003 84.7705C236.163 85.6491 232.816 86.0861 228.957 86.0861C221.245 86.0861 215.29 83.9244 211.097 79.601C206.899 75.2079 204.802 68.5881 204.802 59.7368C204.802 54.6045 205.583 50.0441 207.136 46.0554C208.763 42.0017 211.162 38.8266 214.341 36.5301C217.591 34.2336 221.649 33.0853 226.521 33.0853C230.58 33.0853 234.099 33.8942 237.079 35.5166C240.054 37.139 242.355 39.7377 243.977 43.3219C245.6 46.8364 246.413 51.5642 246.413 57.51V63.8928H217.289C217.558 68.1511 218.642 71.3262 220.534 73.4182C222.43 75.5101 225.573 76.5607 229.971 76.5607C232.951 76.5607 235.861 76.0865 238.701 75.1428C241.611 74.1945 244.01 73.0834 245.907 71.8004V81.6325V81.6279ZM226.317 42.6107C220.636 42.6107 217.624 46.7341 217.289 54.9764H234.136V53.963C234.136 50.7879 233.56 48.1195 232.407 45.9578C231.323 43.7264 229.297 42.6153 226.317 42.6153V42.6107ZM283.051 85.0727L272.191 67.8443L261.94 85.0727H249.663L265.697 58.5188L250.272 34.0941H263.87L273.613 49.5002L282.339 34.0941H294.417L280.006 58.821L296.653 85.068H283.051V85.0727ZM35.4191 85.0727H23.137V64.9062L0 14.6389H12.7888L30.854 53.9584C32.0022 56.4594 32.918 58.5885 33.5921 60.3411C34.2708 62.0286 34.7404 63.8231 35.0146 65.7105C35.2843 67.6025 35.4191 70.0664 35.4191 73.1067V85.0634V85.0727ZM43.4382 48.6913H30.9516L45.9718 14.6389H58.4585L43.4382 48.6913Z" fill="black"/>
</svg>
