<svg width="557" height="100" viewBox="0 0 557 100" fill="none" xmlns="http://www.w3.org/2000/svg">
<path d="M93.05 67.2075C93.05 78.1415 84.3753 85.4679 71.1542 85.4679C57.9331 85.4679 50.4625 78.2437 50.4625 67.412C50.4625 64.7064 50.667 62.6982 51.369 60.2855H64.0788C63.2745 62.6889 62.8701 65.1016 62.8701 67.2075C62.8701 73.6228 66.101 76.0355 71.1449 76.0355C76.5979 76.0355 80.6331 73.6321 80.6331 67.5096C80.6331 49.8489 59.7368 55.6646 63.9811 34.0012H75.896C72.4605 49.9512 93.05 44.9352 93.05 67.2075Z" fill="black"/>
<path d="M22.4025 32.9971C5.55529 32.9971 0 45.837 0 59.881C0 69.9131 2.01757 77.6347 7.36832 84.4638H18.5719C14.4345 78.1415 12.4169 69.7179 12.4169 59.881C12.4169 49.3422 14.2299 42.4202 22.4071 42.4202C30.5844 42.4202 32.3974 49.3422 32.3974 59.881C32.3974 69.7086 30.3798 78.1415 26.2424 84.4638H37.446C42.7967 77.644 44.8143 69.9131 44.8143 59.881C44.8143 45.837 39.0637 32.9971 22.4118 32.9971H22.4025Z" fill="black"/>
<path d="M123.314 32.9971C117.256 32.9971 113.221 35.6004 110.999 39.2172H110.399V37.1113C110.399 29.8825 112.417 24.5642 121.501 24.5642C131.184 24.5642 136.739 24.262 140.161 23.7646V14.2393C136.828 14.6437 131.184 14.7367 121.501 14.7367C105.253 14.7367 98.8888 24.0668 98.8888 37.009V59.1791C98.8888 74.0273 104.946 85.4679 120.287 85.4679C135.628 85.4679 142.69 74.4317 142.69 59.1791C142.69 43.1315 137.339 32.9971 123.314 32.9971ZM120.287 76.0309C113.63 76.0309 110.297 70.9172 110.297 59.2813C110.297 47.6454 113.63 42.4295 120.287 42.4295C126.944 42.4295 130.273 47.5478 130.273 59.1791C130.273 70.8103 126.94 76.0309 120.287 76.0309Z" fill="black"/>
<path d="M371.554 64.7017C371.554 77.8485 362.777 85.4678 349.761 85.4678C335.531 85.4678 328.162 77.8345 328.162 63.1955V14.7366H340.17V63.2048C340.17 72.6279 343.387 76.0448 349.751 76.0448C355.6 76.0448 359.537 72.5256 359.537 64.604C359.537 55.5715 353.187 53.7585 353.787 44.0286H365.794L365.804 44.0425C365.804 51.2574 371.554 54.4697 371.554 64.7017Z" fill="black"/>
<path d="M318.075 14.7366V80.8376C318.075 92.3759 311.008 99.9999 298.196 99.9999C285.384 99.9999 277.412 92.3759 277.412 81.0375C277.412 78.0298 277.718 75.4125 278.625 72.8092H290.633C289.726 75.4264 289.419 78.2297 289.419 81.0375C289.419 87.769 292.846 90.5722 298.196 90.5722C302.529 90.5722 306.067 87.8573 306.067 81.0375V47.3338C303.742 44.7305 301.427 42.42 296.881 42.42C292.65 42.42 290.224 44.9304 290.224 49.542C290.224 51.3457 290.428 53.2518 291.135 55.3577H279.127C278.625 53.4563 278.216 51.6526 278.216 49.6443C278.216 39.0125 284.469 32.997 294.059 32.997C299.907 32.997 303.138 35.5073 305.36 38.2129H306.067V14.7366H318.075Z" fill="black"/>
<path d="M170.141 42.4109C175.594 42.4109 177.909 46.7296 177.909 55.4507C177.909 68.5975 186.583 77.4209 200.414 77.4209C213.43 77.4209 222.918 68.0908 222.918 55.1485C222.918 41.1046 214.234 32.9971 201.413 32.9971C194.328 32.9971 188.499 35.6004 185.082 40.3422C182.218 35.54 177.732 32.9971 170.131 32.9971C157.319 32.9971 149.644 42.727 149.644 55.0695C149.644 66.1615 153.772 73.753 162.647 79.6011L152.578 76.6306V86.4627L205.053 99.7071V89.875L191.73 86.4627C170.029 80.94 161.764 69.5086 161.764 54.9579C161.764 47.3339 164.994 42.4109 170.141 42.4109ZM200.404 42.4295C207.363 42.4295 210.697 46.8505 210.697 55.1672C210.697 62.7912 206.764 68.0071 200.404 68.0071C194.045 68.0071 189.903 62.7912 189.903 55.1672C189.903 46.9388 194.147 42.4295 200.404 42.4295Z" fill="black"/>
<path d="M268.918 51.1459V80.8377C268.918 92.3807 261.857 100 249.045 100C236.233 100 228.26 92.3807 228.26 81.0376C228.26 78.0299 228.567 75.4172 229.473 72.8093H241.481C240.472 75.4265 240.268 78.2344 240.268 81.0376C240.268 87.7691 243.689 90.5769 249.045 90.5769C253.373 90.5769 256.91 87.8574 256.91 81.0376V51.0437C256.91 44.6284 253.577 42.4202 249.045 42.4202C243.996 42.4202 241.876 45.1258 241.876 49.5421C241.876 51.3459 241.978 53.2518 242.783 55.3624H230.775C230.277 53.4564 229.868 51.6527 229.868 49.6444C229.868 39.3194 236.832 32.9971 248.942 32.9971C262.559 32.9971 268.918 39.6123 268.918 51.1459Z" fill="black"/>
<path d="M470.741 17.856C470.741 7.41483 463.271 0 449.041 0C436.833 0 424.621 8.22834 420.288 25.3824H440.673C442.593 18.6649 446.628 15.6571 450.663 15.6571C453.285 15.6571 455.21 16.9634 455.21 19.5667C455.21 27.8973 443.304 26.5911 428.168 30.3008C415.853 33.3086 401.433 39.5286 389.416 56.9802C375.488 78.3506 380.639 99.1168 401.93 99.1168C421.911 99.1168 439.869 86.3791 449.766 68.5138C457.636 55.4182 457.167 44.6377 451.844 37.7993C464.968 34.508 470.741 26.7212 470.741 17.856ZM435.039 64.3996H435.029C429.279 74.4317 420.297 82.6601 415.356 82.6601C410.414 82.6601 411.014 74.4317 416.774 64.3996C422.724 54.2653 431.603 46.0369 436.647 46.0369C441.691 46.0369 440.989 54.2653 435.039 64.3996Z" fill="black"/>
<path d="M514.147 32.3973C511.641 32.3973 509.359 33.1969 507.29 34.5544C507.49 27.279 502.925 22.3652 493.966 22.3652C481.257 22.3652 468.738 30.5936 446.842 84.4637H468.738C484.181 48.2451 490.838 40.3235 493.464 40.3235C494.975 40.3235 494.78 43.1314 492.456 47.1433L483.883 61.4941H498.011L504.566 50.4579C506.077 47.8545 506.89 46.9527 508.103 46.9527C511.832 46.9527 504.566 60.2993 489.838 84.4776H505.779C523.035 56.8825 532.514 32.4113 514.156 32.4113L514.147 32.402V32.3973Z" fill="black"/>
<path d="M546.535 47.5478C543.881 47.5478 541.784 48.3706 540.143 49.7466C541.161 44.7306 536.87 41.9553 529.981 41.6299L525.137 51.0622C529.274 51.4667 531.092 52.866 528.572 57.7798L526.657 61.4895H538.767C540.376 58.5793 541.384 57.5798 542.598 57.5798C544.313 57.5798 544.718 59.4858 542.802 63.3955L539.878 69.2111C537.861 73.3253 535.034 76.7422 531.803 76.7422C528.572 76.7422 528.075 73.6321 529.99 69.6202H517.573C513.231 76.0448 515.965 85.9746 530.385 85.9746C541.082 85.9746 547.442 80.3589 551.477 71.7261L554.401 65.4038C558.134 57.38 556.521 47.5478 546.535 47.5478Z" fill="black"/>
</svg>
