<svg width="428" height="100" viewBox="0 0 428 100" fill="none" xmlns="http://www.w3.org/2000/svg">
<path d="M93.6073 50.4566C93.6073 38.1278 87.3573 33.3333 74.6005 33.3333C68.334 33.311 62.1688 34.9137 56.7066 37.9852V48.0023C61.6156 44.7718 67.3277 42.9731 73.202 42.8082C78.9098 42.8082 81.5925 45.0342 81.5925 50.4852V53.339H79.6518C61.2728 53.339 53.0822 59.4178 53.0822 69.7203C53.0822 80.0228 59.3322 85.8162 68.6358 85.8162C70.9363 86.0267 73.2543 85.7065 75.4115 84.8802C77.5688 84.0539 79.5076 82.7436 81.0788 81.0502H81.5925C81.7153 82.4357 82.0224 83.7985 82.5057 85.1027H94.1781C93.7554 80.9686 93.5459 76.8155 93.5502 72.6598L93.6073 50.4566ZM81.5925 73.0023C80.6108 74.3302 79.3144 75.3932 77.8199 76.0956C76.3254 76.798 74.6796 77.1178 73.0308 77.0262C72.0391 77.1613 71.0297 77.0726 70.0767 76.7668C69.1237 76.4609 68.2513 75.9457 67.5233 75.2588C66.7954 74.5719 66.2304 73.7307 65.8698 72.7971C65.5092 71.8634 65.3622 70.8609 65.4395 69.863C65.4395 64.1552 69.5776 61.9863 79.9087 61.9863H81.621L81.5925 73.0023ZM143.75 48.0308V85.1313H131.735V49.2294C131.735 45.4052 129.823 43.5217 125.571 43.5217C123.621 43.5458 121.701 44.007 119.952 44.8713C118.204 45.7356 116.671 46.9811 115.468 48.516V85.1313H103.425V34.2466H115.154L115.468 38.4989H116.067C117.912 36.7631 120.09 35.4202 122.469 34.5519C124.849 33.6835 127.38 33.3078 129.909 33.4475C139.84 33.476 143.75 37.8995 143.75 48.0308ZM30.7363 54.2237C34.0136 60.0452 35.5861 66.6715 35.274 73.3447V85.274H23.0594V65.2968L0 14.8687H12.7283L30.7363 54.2237ZM58.2192 14.8687L43.2648 48.8299H30.8219L45.8048 14.8687H58.2192ZM184.304 40.2397C182.957 38.0833 181.08 36.3082 178.851 35.0841C176.623 33.8599 174.118 33.2277 171.575 33.2477C159.931 33.2477 151.855 43.0651 151.855 60.0457C151.855 77.0262 159.732 86.1301 171.062 86.1301C173.786 86.1562 176.47 85.4661 178.844 84.1288C181.218 82.7915 183.199 80.854 184.589 78.5103L185.217 85.1313H196.347V14.8687H184.304V40.2397ZM174.087 76.6267C167.523 76.6267 164.298 71.5753 164.298 60.0457C164.298 48.0308 167.723 42.7511 174.6 42.7511C181.478 42.7511 184.304 47.9167 184.304 59.6461C184.304 71.3756 180.879 76.6267 174.087 76.6267ZM225.656 33.2477C210.987 33.2477 204.024 44.492 204.024 59.8459C204.024 77.5399 212.586 86.1301 228.082 86.1301C234.031 86.3573 239.913 84.8074 244.977 81.6781V71.8893C240.208 74.886 234.712 76.524 229.081 76.6267C220.348 76.6267 216.981 72.46 216.552 63.984H245.434V57.6199C245.434 39.9543 237.671 33.2477 225.656 33.2477ZM225.457 42.8082C231.421 42.8082 233.248 47.774 233.248 54.2237V55.2511H216.524C216.895 47.089 219.749 42.8082 225.457 42.8082ZM278.938 58.9612L295.519 85.1883H281.963L271.176 68.0651L260.93 85.1883H248.716L264.726 58.7329L249.315 34.2466H262.871L272.517 49.6004L281.25 34.2466H293.293L278.938 58.9612ZM421.29 66.2671L410.559 85.1883H395.89L408.933 62.0434C412.985 54.9657 412.9 50 409.361 50C406.507 50 404.309 52.5399 399.657 60.7306L385.788 85.1883H366.267L394.292 35.8447H408.933L405.679 41.1244C408.534 38.8673 412.086 37.6764 415.725 37.7568C426.427 37.6998 431.279 48.516 421.29 66.21V66.2671ZM362.043 73.6587L377.397 46.661C395.205 15.3539 385.702 0 367.095 0C346.176 0 324.914 16.895 312.3 40.1256C297.517 66.524 303.995 86.1301 321.604 86.1301C328.713 86.0692 335.653 83.9478 341.581 80.0228L329.68 100H347.175L355.565 85.2454H362.329L369.092 73.8299L362.043 73.6587ZM337.471 68.4931C332.021 68.4931 333.134 57.7625 341.524 43.2078C349.914 28.653 360.531 17.9224 366.61 17.9224C371.461 17.9224 370.833 28.7671 361.844 44.5205C353.567 59.0468 343.35 68.4931 337.471 68.4931Z" fill="white"/>
</svg>
