<svg width="480" height="100" viewBox="0 0 480 100" fill="none" xmlns="http://www.w3.org/2000/svg">
<path d="M150.571 32.2286H162V80H150.857L150.571 76.0286H150C148.259 77.6546 146.208 78.9127 143.969 79.7276C141.73 80.5426 139.35 80.8976 136.971 80.7714C127.743 80.7714 123.943 76.6 123.943 67.0857V28.5714H121.771C115.686 28.5714 112.086 25.3429 112.086 18.4857V12.7714H123.514V16.7429C123.514 19.6 124.771 21.4 128.657 21.4H135.4V65.9714C135.4 69.5714 137.229 71.2857 141.114 71.2857C142.953 71.252 144.761 70.8088 146.407 69.9883C148.053 69.1679 149.495 67.9909 150.629 66.5429L150.571 32.2286ZM209.314 45.1429C209.314 35.6571 205.514 31.4571 196.286 31.4571C193.904 31.3282 191.521 31.6846 189.281 32.5048C187.042 33.325 184.992 34.5919 183.257 36.2286H182.686L182.429 32.2286H171.429V80H182.714V45.7143C183.851 44.2693 185.293 43.0944 186.939 42.2743C188.584 41.4541 190.391 41.0091 192.229 40.9714C196.229 40.9714 197.943 42.6857 197.943 46.2857V96.6857H209.371V80H216.8V71.1143H209.371L209.314 45.1429ZM31.4286 44.2857C38.7429 43.1429 43.4 38.3143 43.4 29.1714C43.3429 18.6286 35.3714 11.4286 23.5714 11.4286C10.0857 11.4286 1.71429 18.7143 1.71429 28.3143V31.9429H13.1429V30.4286C13.1429 24.2286 16.2857 20.2571 22.3714 20.2571C23.7096 20.1695 25.0507 20.3763 26.3003 20.8631C27.5498 21.3498 28.6774 22.1047 29.6037 23.0745C30.5299 24.0443 31.2321 25.2054 31.661 26.476C32.0898 27.7467 32.2348 29.0959 32.0857 30.4286C32.0857 37.5429 27.8 40.4 22.4571 40.4H0V49.3429H22.1429C29.7429 49.3429 33.5714 53.8 33.5714 60.7714C33.5714 67.7429 29.6857 72.2 21.6 72.2C15.4 72.0571 11.4286 68.8286 11.4286 62.3714V60.6571H0V64.5429C0 74.2857 6.94286 81 22.3429 81C36.8857 81 45.2 71.7714 45.2 60.5429C45.4789 56.5721 44.1949 52.6496 41.622 49.6123C39.0491 46.575 35.3911 44.6635 31.4286 44.2857ZM103.657 66.5429C102.632 68.0125 101.275 69.2205 99.6969 70.0692C98.1186 70.9179 96.3629 71.3835 94.5714 71.4286C90.6 71.4286 89.2571 69.7143 89.2571 66.1143V32.2286H77.8286V66.5143C76.8234 67.9665 75.4954 69.166 73.9488 70.0187C72.4021 70.8713 70.6788 71.3539 68.9143 71.4286C64.9143 71.4286 63.6 69.7143 63.6 66.1143V32.2286H52.1714V67.1143C52.1714 76.6286 55.4857 80.8 64.7143 80.8C67.4036 80.9566 70.0927 80.4887 72.571 79.4329C75.0494 78.3772 77.2498 76.7621 79 74.7143C80.8286 78.8857 84.7143 80.8 90.8 80.8C93.0354 80.9507 95.2764 80.6034 97.3614 79.7832C99.4464 78.963 101.323 77.6904 102.857 76.0571H103.429L103.714 80.0286H114.743V32.2286H103.314L103.657 66.5429ZM230.2 12.2571H218.771V67.1143C218.771 76.6286 222.571 80.8 231.8 80.8C234.175 80.9272 236.551 80.5726 238.785 79.7575C241.019 78.9424 243.065 77.6837 244.8 76.0571H245.371L245.714 80H256.743V49.3429H245.314V66.4857C244.219 67.9551 242.809 69.1614 241.187 70.0165C239.566 70.8717 237.774 71.3541 235.943 71.4286C231.943 71.4286 230.229 69.7143 230.229 66.1143V41.1714H256.829V32.2286H230.143L230.2 12.2571ZM341.886 66.5429C340.76 68.0245 339.315 69.2333 337.658 70.0792C336.001 70.9251 334.174 71.3864 332.314 71.4286C328.314 71.4286 326.6 69.7143 326.6 66.1143V32.2286H315.171V67.1143C315.171 76.6286 318.971 80.8 328.2 80.8C330.579 80.9261 332.959 80.5711 335.198 79.7562C337.436 78.9413 339.487 77.6832 341.229 76.0571H341.8L342.086 80.0286H353.114V32.2286H341.686L341.886 66.5429ZM277.571 74.4286V84.5143H307.143V92.4857H277.571V100H266.143V92.4857H261.514V84.5143H266.257V32.2286H276.714L277.286 38.4C278.619 36.229 280.496 34.4437 282.731 33.221C284.966 31.9982 287.481 31.3804 290.029 31.4286C300.657 31.4286 308.086 40.2571 308.086 56.2286C308.086 72.2 300.486 81.1429 289.457 81.1429C287.066 81.1393 284.716 80.5195 282.634 79.3435C280.552 78.1674 278.809 76.4747 277.571 74.4286ZM277.571 56.1714C277.571 67.2 280.6 72.0571 286.6 72.0571C293.143 72.0571 296.4 67.2 296.4 56.0857C296.4 44.9714 293.343 40.2 287.171 40.2C281 40.2 277.571 45.0571 277.571 56.1714ZM468.057 35.4571C464.64 35.3756 461.302 36.4982 458.629 38.6286L461.686 33.6571H447.914L421.571 80H440L453.029 57.1429C457.4 49.4571 459.486 47.0857 462.171 47.0857C465.486 47.0857 465.571 51.7429 461.771 58.3714L449.429 80H463.2L473.286 62.2286C482.686 45.7143 478.143 35.4571 468.057 35.4571ZM424.143 69.2L417.8 80H411.429L403.514 93.8857H387.086L398.286 75.2C392.729 78.8687 386.23 80.8531 379.571 80.9143C363.029 80.9143 356.943 62.4571 370.8 37.6571C382.686 15.8857 402.657 0 422.343 0C439.829 0 448.771 14.4571 432.029 43.8286L417.6 69.2H424.143ZM417.4 41.7429C425.971 26.9143 426.429 16.7429 421.886 16.7429C416.171 16.7429 406.2 26.8 398.314 40.4857C390.429 54.1714 389.371 64.2571 394.486 64.2571C399.6 64.2571 409.6 55.5143 417.4 41.7429Z" fill="white"/>
</svg>
