<svg width="16" height="16" viewBox="0 0 16 16" fill="none" xmlns="http://www.w3.org/2000/svg">
<path d="M11.1388 4.47138L10.196 5.41419L8.66736 3.8856L8.66736 11.3333H7.33403V3.8856L5.80543 5.41419L4.86262 4.47138L8.00069 1.33331L11.1388 4.47138Z" fill="#21201F"/>
<path d="M10.6673 13.3333H5.33398C4.69449 13.3333 4.28164 13.3326 3.96567 13.311C3.66167 13.2903 3.54589 13.2548 3.49041 13.2318C3.1637 13.0965 2.90414 12.8369 2.76881 12.5102C2.74583 12.4547 2.71034 12.339 2.6896 12.035C2.66804 11.719 2.66732 11.3061 2.66732 10.6666V7.33331H1.33398V10.6666C1.33398 11.9092 1.33398 12.5304 1.53697 13.0205C1.80762 13.6739 2.32675 14.193 2.98016 14.4637C3.47022 14.6666 4.09147 14.6666 5.33398 14.6666H10.6673C11.9098 14.6666 12.5311 14.6666 13.0211 14.4637C13.6745 14.193 14.1937 13.6739 14.4643 13.0205C14.6673 12.5304 14.6673 11.9092 14.6673 10.6666V7.33331H13.334V10.6666C13.334 11.3061 13.3333 11.719 13.3117 12.035C13.291 12.339 13.2555 12.4547 13.2325 12.5102C13.0972 12.8369 12.8376 13.0965 12.5109 13.2318C12.4554 13.2548 12.3396 13.2903 12.0356 13.311C11.7197 13.3326 11.3068 13.3333 10.6673 13.3333Z" fill="#21201F"/>
</svg>
